<svg xmlns="http://www.w3.org/2000/svg" xml:space="preserve" width="20" height="20" viewBox="0 0 24 24"><path d="M14.979 23.999a3.496 3.496 0 0 1-2.072-.682 3.465 3.465 0 0 1-1.414-3.092l.251-3.133a4.486 4.486 0 0 0-1.302-3.534 4.482 4.482 0 0 0-3.533-1.301l-3.134.25a3.478 3.478 0 0 1-3.092-1.415 3.496 3.496 0 0 1-.42-3.404C2.207 2.897 7.015-.187 12.16.009c6.391.243 11.588 5.439 11.831 11.83.195 5.173-2.891 9.955-7.679 11.898a3.532 3.532 0 0 1-1.333.262zm1.145-.725h.01-.01zM7.27 11.242c1.451 0 2.846.573 3.881 1.608a5.482 5.482 0 0 1 1.59 4.321l-.251 3.133a2.476 2.476 0 0 0 1.009 2.206c.709.519 1.62.633 2.438.3 4.4-1.786 7.236-6.18 7.056-10.933-.224-5.872-4.999-10.646-10.87-10.869A11.357 11.357 0 0 0 1.188 8.064a2.504 2.504 0 0 0 .302 2.437 2.47 2.47 0 0 0 2.205 1.009l3.134-.25c.148-.012.294-.018.441-.018z"/><path d="M12.5 8C11.121 8 10 6.878 10 5.5S11.121 3 12.5 3 15 4.122 15 5.5 13.879 8 12.5 8zm0-4c-.827 0-1.5.673-1.5 1.5S11.673 7 12.5 7 14 6.327 14 5.5 13.327 4 12.5 4zM6 9c-1.103 0-2-.897-2-2s.897-2 2-2 2 .897 2 2-.897 2-2 2zm0-3a1.001 1.001 0 0 0 0 2 1.001 1.001 0 0 0 0-2zM17.5 15c-1.93 0-3.5-1.57-3.5-3.5S15.57 8 17.5 8 21 9.57 21 11.5 19.43 15 17.5 15zm0-6c-1.379 0-2.5 1.122-2.5 2.5s1.121 2.5 2.5 2.5 2.5-1.122 2.5-2.5S18.879 9 17.5 9zM16 21c-1.103 0-2-.897-2-2s.897-2 2-2 2 .897 2 2-.897 2-2 2zm0-3a1.001 1.001 0 0 0 0 2 1.001 1.001 0 0 0 0-2z"/></svg>