<svg width="30" height="30" viewBox="0 0 30 30" fill="none" xmlns="http://www.w3.org/2000/svg">
<g clip-path="url(#clip0_4_5)">
<path d="M13.4375 12.5H5.625C5.45924 12.5 5.30027 12.4342 5.18306 12.3169C5.06585 12.1997 5 12.0408 5 11.875C5 11.7092 5.06585 11.5503 5.18306 11.4331C5.30027 11.3158 5.45924 11.25 5.625 11.25H13.4375C13.6033 11.25 13.7622 11.3158 13.8794 11.4331C13.9967 11.5503 14.0625 11.7092 14.0625 11.875C14.0625 12.0408 13.9967 12.1997 13.8794 12.3169C13.7622 12.4342 13.6033 12.5 13.4375 12.5ZM24.375 17.5H5.625C5.45924 17.5 5.30027 17.4342 5.18306 17.3169C5.06585 17.1997 5 17.0408 5 16.875C5 16.7092 5.06585 16.5503 5.18306 16.4331C5.30027 16.3158 5.45924 16.25 5.625 16.25H24.375C24.5408 16.25 24.6997 16.3158 24.8169 16.4331C24.9342 16.5503 25 16.7092 25 16.875C25 17.0408 24.9342 17.1997 24.8169 17.3169C24.6997 17.4342 24.5408 17.5 24.375 17.5Z" fill="black"/>
<path d="M28.125 26.25H1.875C0.84125 26.25 0 25.4088 0 24.375V6.875C0 5.84125 0.84125 5 1.875 5H13.2C13.3658 5 13.5247 5.06585 13.6419 5.18306C13.7592 5.30027 13.825 5.45924 13.825 5.625C13.825 5.79076 13.7592 5.94973 13.6419 6.06694C13.5247 6.18415 13.3658 6.25 13.2 6.25H1.875C1.70924 6.25 1.55027 6.31585 1.43306 6.43306C1.31585 6.55027 1.25 6.70924 1.25 6.875V24.375C1.25 24.5408 1.31585 24.6997 1.43306 24.8169C1.55027 24.9342 1.70924 25 1.875 25H28.125C28.2908 25 28.4497 24.9342 28.5669 24.8169C28.6842 24.6997 28.75 24.5408 28.75 24.375V14.6625C28.75 14.4967 28.8158 14.3378 28.9331 14.2206C29.0503 14.1033 29.2092 14.0375 29.375 14.0375C29.5408 14.0375 29.6997 14.1033 29.8169 14.2206C29.9342 14.3378 30 14.4967 30 14.6625V24.375C30 25.4088 29.1588 26.25 28.125 26.25Z" fill="black"/>
<path d="M19.375 30H10.625C10.5012 30.0002 10.3802 29.9637 10.2772 29.895C10.1742 29.8264 10.0939 29.7287 10.0465 29.6143C9.99912 29.5 9.98674 29.3741 10.011 29.2528C10.0352 29.1314 10.0949 29.0199 10.1825 28.9325C11.8275 27.2875 11.8488 25.695 11.8488 25.6275C11.8488 25.285 12.1275 25.0037 12.47 25.0012H12.4738C12.815 25.0012 13.0938 25.2738 13.0988 25.615C13.0988 25.6875 13.1025 27.1088 11.9625 28.7488H18.0338C16.89 27.1138 16.8737 25.6963 16.8737 25.6238C16.8733 25.458 16.9386 25.2988 17.0555 25.1813C17.1723 25.0637 17.3311 24.9974 17.4969 24.9969C17.6626 24.9964 17.8218 25.0617 17.9394 25.1786C18.0569 25.2955 18.1233 25.4542 18.1237 25.62C18.125 25.6988 18.1737 27.29 19.8162 28.9313C19.9037 29.0186 19.9633 29.13 19.9873 29.2513C20.0114 29.3726 19.9988 29.4984 19.9513 29.6125C19.9047 29.7271 19.825 29.8252 19.7223 29.8943C19.6197 29.9633 19.4987 30.0001 19.375 30ZM29.375 22.5H0.625C0.45924 22.5 0.300269 22.4342 0.183058 22.3169C0.065848 22.1997 0 22.0408 0 21.875C0 21.7092 0.065848 21.5503 0.183058 21.4331C0.300269 21.3158 0.45924 21.25 0.625 21.25H29.375C29.5408 21.25 29.6997 21.3158 29.8169 21.4331C29.9342 21.5503 30 21.7092 30 21.875C30 22.0408 29.9342 22.1997 29.8169 22.3169C29.6997 22.4342 29.5408 22.5 29.375 22.5ZM23.125 13.75C19.3338 13.75 16.25 10.665 16.25 6.875C16.25 3.085 19.3338 0 23.125 0C26.9162 0 30 3.085 30 6.875C30 10.665 26.9162 13.75 23.125 13.75ZM23.125 1.25C20.0238 1.25 17.5 3.77375 17.5 6.875C17.5 9.97625 20.0238 12.5 23.125 12.5C26.2262 12.5 28.75 9.97625 28.75 6.875C28.75 3.77375 26.2262 1.25 23.125 1.25Z" fill="black"/>
<path d="M22.4437 9.37499C22.36 9.37499 22.2771 9.35817 22.2 9.32553C22.123 9.29289 22.0532 9.2451 21.995 9.18499L20.1762 7.30999C20.1155 7.25185 20.0671 7.18205 20.034 7.10477C20.0008 7.02749 19.9836 6.94433 19.9834 6.86025C19.9832 6.77617 19.9999 6.6929 20.0326 6.61544C20.0653 6.53798 20.1133 6.46791 20.1737 6.40944C20.2341 6.35096 20.3057 6.30527 20.3842 6.27511C20.4627 6.24495 20.5464 6.23093 20.6305 6.2339C20.7145 6.23687 20.7971 6.25676 20.8732 6.29239C20.9494 6.32802 21.0176 6.37865 21.0737 6.44124L22.4125 7.82124L25.1487 4.59749C25.2017 4.53487 25.2666 4.4833 25.3395 4.44573C25.4125 4.40817 25.4921 4.38534 25.5739 4.37855C25.6556 4.37176 25.738 4.38114 25.8161 4.40616C25.8943 4.43118 25.9667 4.47135 26.0293 4.52437C26.092 4.57739 26.1435 4.64223 26.1811 4.71518C26.2187 4.78813 26.2415 4.86776 26.2483 4.94954C26.2551 5.03131 26.2457 5.11362 26.2207 5.19177C26.1956 5.26991 26.1555 5.34237 26.1025 5.40499L22.9212 9.15499C22.8646 9.22147 22.7949 9.27546 22.7163 9.31355C22.6378 9.35163 22.5522 9.37298 22.465 9.37624L22.4437 9.37499Z" fill="black"/>
</g>
<defs>
<clipPath id="clip0_4_5">
<rect width="30" height="30" fill="white"/>
</clipPath>
</defs>
</svg>
