<svg xmlns="http://www.w3.org/2000/svg" xml:space="preserve" width="128" height="128" viewBox="0 0 24 24"><path d="M10.75 10H4.5a.5.5 0 0 1 0-1h6.25a.5.5 0 0 1 0 1zM19.5 14h-15a.5.5 0 0 1 0-1h15a.5.5 0 0 1 0 1z"/><path d="M22.5 21h-21C.673 21 0 20.327 0 19.5v-14C0 4.673.673 4 1.5 4h9.06a.5.5 0 0 1 0 1H1.5a.5.5 0 0 0-.5.5v14a.5.5 0 0 0 .5.5h21a.5.5 0 0 0 .5-.5v-7.77a.5.5 0 0 1 1 0v7.77c0 .827-.673 1.5-1.5 1.5z"/><path d="M15.5 24h-7a.5.5 0 0 1-.354-.854c1.316-1.316 1.333-2.59 1.333-2.644 0-.274.223-.499.497-.501h.003c.273 0 .496.218.5.491 0 .058.003 1.195-.909 2.507h4.857c-.915-1.308-.928-2.442-.928-2.5a.5.5 0 0 1 1-.003c.001.063.04 1.336 1.354 2.649a.499.499 0 0 1 .108.545.497.497 0 0 1-.461.31zm-1-3.5h.01-.01zM23.5 18H.5a.5.5 0 0 1 0-1h23a.5.5 0 0 1 0 1zM18.5 11C15.467 11 13 8.532 13 5.5S15.467 0 18.5 0 24 2.468 24 5.5 21.533 11 18.5 11zm0-10C16.019 1 14 3.019 14 5.5s2.019 4.5 4.5 4.5S23 7.981 23 5.5 20.981 1 18.5 1z"/><path d="M17.955 7.5a.5.5 0 0 1-.359-.152l-1.455-1.5a.5.5 0 1 1 .718-.695l1.071 1.104 2.189-2.579a.499.499 0 1 1 .763.646l-2.545 3a.504.504 0 0 1-.365.177l-.017-.001z"/></svg>