<!DOCTYPE svg PUBLIC "-//W3C//DTD SVG 1.1//EN" "http://www.w3.org/Graphics/SVG/1.1/DTD/svg11.dtd">
<svg xmlns="http://www.w3.org/2000/svg" viewBox="0 0 1024 1024">
<path fill="#fbfbfb" stroke="#fbfbfb" d="M117.667 297.667c-.367.366-.667 29.568-.667 64.893 0 58.693.142 64.28 1.646 64.858.905.347 29.48.322 63.5-.056l61.854-.687V297h-62.833c-34.559 0-63.134.3-63.5.667M385.5 327.11c-14.85 15.438-33.525 34.946-41.5 43.35l-14.5 15.282-12.332-12.871C310.385 365.792 304.281 360 303.605 360c-2.341 0-6.881 5.685-5.916 7.409 1.664 2.973 30.725 31.658 31.784 31.374 1.023-.274 17.551-17.24 66.695-68.462l23.668-24.669-2.537-3.326c-1.395-1.829-3.045-3.317-3.668-3.306-.622.011-13.281 12.651-28.131 28.09M126 362.5V419h109v-47c0-25.85-.197-47-.438-47s-12.004 12.488-26.14 27.75c-14.136 15.262-26.767 28.868-28.068 30.233l-2.366 2.484-17.994-17.973C150.097 357.609 142 349.045 142 348.463c0-.581 1.808-2.822 4.017-4.98l4.017-3.922 13.789 13.763 13.79 13.762 9.943-10.792c5.469-5.937 16.893-18.219 25.385-27.294 8.493-9.075 16.794-17.962 18.446-19.75l3.005-3.25H126v56.5m152.737-46.75c-.21.413-.185 28.991.054 63.508l.436 62.759 55.136-.259 55.137-.258.26-46.25c.143-25.437-.103-46.25-.547-46.25-.444 0-2.473 1.706-4.51 3.792L381 356.584V434h-94V324h90.994l4.003-3.616c2.202-1.989 4.003-4.014 4.003-4.5 0-1.074-106.718-1.207-107.263-.134m176.506 99.5.257 64.25 10.75.284 10.75.284v-46.652l4.564-4.458 4.563-4.458 2.687 3.042c1.477 1.674 12.567 14.161 24.643 27.75L535.414 480h12.793c8.282 0 12.793-.371 12.793-1.052 0-.578-5.345-6.991-11.878-14.25s-20.034-22.41-30-33.669L501 410.558l5.301-5.529a67968.13 67968.13 0 0 1 28-29.161C546.785 362.87 557 351.957 557 351.618c0-.34-5.803-.618-12.895-.618h-12.894l-16.277 17.25C495.72 388.613 477.867 407 477.309 407c-.218 0-.324-.562-.234-1.25.089-.687.109-13.288.043-28L477 351h-22.015l.258 64.25M588 415.5V480h83v-20h-61v-35h52v-21h-52v-34h60v-19h-82v64.5m116.417-.25.628 64.25 41.478.261 41.477.261V460h-61v-34.967l26.25-.266 26.25-.267v-20l-26.25-.267-26.25-.266V370h60v-19h-83.211l.628 64.25m116.826-.069.257 64.319 10.73.284 10.73.283.27-21.283.27-21.284 16.5-.598c18.591-.674 23.233-1.803 32.023-7.788 21.698-14.772 22.768-54.938 1.868-70.078-9.61-6.961-12.368-7.45-44.148-7.83l-28.758-.343.258 64.318m22.091-29.567c.363 8.737.661 19.486.662 23.886l.004 8 12.75-.359c23.319-.656 30.287-6.198 30.228-24.04-.055-16.535-7.364-21.942-30.89-22.853l-13.412-.52.658 15.886m-725.092 61.215c-.992.63-1.203 14.048-1 63.735l.258 62.936h126l.261-40.25c.144-22.137-.102-40.25-.547-40.25-.444 0-2.474 1.706-4.511 3.792L235 500.584V565H126V455h109v19.157l-25.942 27.838-25.941 27.837-15.669-16.011-15.668-16.012-3.89 3.799c-2.14 2.089-3.89 4.156-3.89 4.593 0 .437 8.766 9.683 19.479 20.547l19.479 19.752 6.279-6.5c3.454-3.575 17.188-18.528 30.521-33.228L244 480.043V446l-62.25.015c-34.238.009-62.816.375-63.508.814m161.435 13.87c-1.126.294-1.604 1.048-1.25 1.97.315.822.573 30.033.573 64.913V591h111v-36c0-19.8-.359-36-.797-36-.438 0-2.512 1.756-4.608 3.903l-3.812 3.903.367 28.097.366 28.097H287v-57.25l-.001-57.25 46.713.295c25.692.163 46.824.408 46.96.544.137.136.379 4.386.538 9.445.333 10.56.338 10.565 5.209 5.174l3.652-4.043-.285-9.707-.286-9.708-54-.138c-29.7-.076-54.821.075-55.823.337m92.834 50.368-39.989 40.958-14.185-14.762-14.186-14.763-3.575 3.446c-1.967 1.896-3.576 3.824-3.576 4.285 0 1.326 34.161 35.769 35.475 35.769.649 0 6.995-6.158 14.102-13.684 7.108-7.526 26.31-27.364 42.673-44.083 16.363-16.719 29.75-30.723 29.75-31.12 0-.396-1.462-2.134-3.25-3.862l-3.25-3.142-39.989 40.958m81.765 28.625c-2.161.428-2.231.849-2.5 15.124L451.5 569.5l-8.25.29-8.25.291v5.838l8.25.291 8.25.29.5 41.678c.481 40.12.577 41.784 2.565 44.5 2.822 3.858 7.917 6.194 15.16 6.951 9.021.943 11.472.078 11.086-3.913l-.311-3.216h-7.227c-6.565 0-7.482-.254-10-2.772l-2.773-2.772-.283-40.5-.282-40.501 9.532.67 9.533.67V570h-18.948l-.276-15.237c-.295-16.308-.225-16.114-5.5-15.071m368.75.81c-54.247 12.265-70.164 83.215-26.514 118.182 15.868 12.711 40.432 17.552 62.375 12.291 56.693-13.59 68.726-92.514 18.726-122.817-13.606-8.246-37.287-11.567-54.587-7.656M644 605.989v66.18l26.75-.417c29.718-.463 32.999-.99 46.25-7.423 44.914-21.807 45.485-94.366.914-116.189-14.066-6.888-17.072-7.39-47.164-7.889l-26.75-.443v66.181m186.5-45.495c-37.128 8.262-49.723 55.538-21.543 80.868 21.564 19.384 60.169 12.712 72.389-12.511 18.21-37.585-11.235-77.171-50.846-68.357M666 605.846V652l10.25-.017c36.575-.062 56.61-20.89 51.93-53.983-3.537-25.016-18.123-35.938-50.298-37.668L666 559.693v46.153m-147.218-36.293c-26.756 6.486-40.787 31.077-35.301 61.866 5.889 33.049 41.896 49.301 73.895 33.353 23.428-11.675 32.245-45.79 18.746-72.529-9.329-18.479-34.168-28.308-57.34-22.69m1.952 7.474c-37.111 9.345-40.679 68.885-4.981 83.124 8.319 3.318 25.192 3.311 33.532-.014 31.871-12.708 33.18-64.968 2.01-80.312-7.023-3.458-22.363-4.862-30.561-2.798M117 659v66h127V593H117v66m9-.5V716h109l-.046-47.75-.047-47.75-10.59 11c-5.825 6.05-18.483 19.449-28.13 29.775-9.647 10.326-17.918 18.648-18.381 18.494-1.131-.377-35.806-35.018-35.806-35.771 0-.326 1.808-2.357 4.017-4.514l4.017-3.923 13.246 13.22c7.286 7.27 13.517 13.219 13.847 13.219.743 0 56.246-58.801 56.706-60.077.201-.557-21.13-.923-53.75-.923H126v57.5m152.814-48.758c-.173.417-.194 24.271-.046 53.008l.267 52.25h110.983l-.259-52.75-.259-52.75-55.186-.258c-30.352-.143-55.327.082-55.5.5M287 662v45h94.727l-.236-2.25c-.13-1.237-.293-21.487-.363-45L381 617h-94v45" fill-rule="evenodd"/>
<path fill="#060606" stroke="#060606" d="M118 362.5V427h125V298H118v64.5m267.993-35.057a84763.148 84763.148 0 0 1-42.134 43.841L329.218 386.5l-12.751-13.301-12.752-13.3-2.858 2.738c-1.571 1.505-2.834 3.215-2.806 3.8.027.585 6.98 8.258 15.449 17.051l15.4 15.988 12.8-13.482c7.04-7.416 24.658-25.635 39.152-40.488 14.493-14.853 28.987-29.97 32.208-33.593l5.857-6.588-2.716-3.253-2.716-3.254-27.492 28.625M126.097 306.5c-.405.55-.541 26.087-.303 56.75l.433 55.75H236v-47.5c0-26.891-.384-47.5-.885-47.5-.7 0-29.868 30.886-53.357 56.5l-3.668 4-18.043-17.987-18.043-17.988 3.999-3.998 3.998-3.999 13.78 13.753 13.78 13.754 22.469-24.164a21938.269 21938.269 0 0 0 28.737-30.948c3.829-4.144 5.842-7.047 5.174-7.46-1.797-1.11-107.008-.099-107.844 1.037M279 378.5V441h110v-92.392L385.5 352l-3.5 3.392V434h-96V323h92.608l3.392-3.5 3.392-3.5H279v62.5m177 36.465V479h21v-46.584l4.503-4.419c3.91-3.837 4.685-4.227 5.881-2.958.758.803 6.774 7.598 13.37 15.099a4337.595 4337.595 0 0 0 23.304 26.25L535.369 479h25.657l-20.263-22.769c-32.81-36.869-39.249-44.292-39.506-45.545-.134-.652 12.286-14.236 27.601-30.186l27.846-29-12.102-.283-12.102-.283-10 10.283c-5.5 5.656-17.875 18.573-27.5 28.706l-17.5 18.422-.5-28.422-.5-28.423-10.25-.285-10.25-.285v64.035m132 .099V479h83v-18h-62.045l.272-18.25.273-18.25 26.25-.267 26.25-.266V405h-53.046l.273-17.75.273-17.75 29.75-.265 29.75-.265v-18.03l-40.5.094-40.5.093v63.937M705 415v64h83v-4.36c0-2.399-.286-6.449-.636-9l-.636-4.64H726v-37h53v-19h-53v-36h60v-18h-81v64m117 0v64h21v-42h12.042c37.268 0 54.366-15.228 52.707-46.944-.682-13.042-3.343-19.81-10.669-27.136-9.774-9.774-19.433-11.92-53.652-11.92H822v64m21.533-45.2c-.293.293-.533 11.308-.533 24.478v23.944l14.25-.422c19.811-.588 25.201-3.324 29.271-14.86 4.813-13.641-1.352-27.894-13.521-31.261-5.347-1.478-28.397-2.949-29.467-1.879M118 510v63h125v-79.392L239.5 497l-3.5 3.392V566H126.091l-.582-3.25c-.32-1.788-.453-26.875-.295-55.75l.286-52.5 55.25-.258 55.25-.259v20.099l-26.145 27.959C195.476 517.418 183.369 530 182.952 530c-.418 0-7.567-7.049-15.889-15.664l-15.129-15.664-3.467 3.36c-1.907 1.848-3.467 3.839-3.467 4.424 0 .585 8.53 9.585 18.955 19.999l18.956 18.936 2.185-1.946c1.792-1.595 28.713-30.935 53.75-58.579l5.347-5.903-.725-15.981-.724-15.982H118v63m161.243 15.75.257 64.75 54.75.259 54.75.258v-72.023l-3.5 3.874-3.5 3.874V584h-96V468h96v9.5c0 10.56.306 10.996 4.25 6.053 2.568-3.218 2.75-4.08 2.75-13V461H278.985l.258 64.75M373 511.492c-21.725 22.258-39.812 40.479-40.194 40.489-.381.01-6.996-6.394-14.699-14.231l-14.006-14.25-3.154 3.123c-4.11 4.069-4.52 3.449 15.289 23.166l16.365 16.289 15.949-16.762c8.773-9.219 27.988-29.044 42.7-44.056 14.712-15.012 26.736-27.625 26.718-28.027-.031-.734-4.609-6.242-5.17-6.222-.164.005-18.073 18.222-39.798 40.481m457.318 28.564c-25.862 3.158-46.377 19.595-55.056 44.109-3.963 11.193-3.92 31.862.09 43.325 7.03 20.096 21.148 34.351 40.813 41.209 9.825 3.427 31.57 4.384 42.307 1.863 30.477-7.154 49.846-32.707 49.695-65.562-.192-42.064-34.034-70.296-77.849-64.944m-377.068.606c-.919.371-1.25 4.324-1.25 14.921V570h-16v6h15.878l.311 40.75c.283 37.081.476 41.081 2.138 44.423 2.421 4.866 7.306 7.14 16.418 7.644 8.974.497 10.152.096 9.515-3.238-.472-2.468-.782-2.579-7.242-2.579-13.806 0-14.005-.7-14.012-49.25L459 576h9.441c9.97 0 10.809-.329 9.882-3.873-.433-1.657-1.245-2.17-3.202-2.023-1.441.109-5.659.13-9.371.047L459 570v-15c0-16.138-.18-16.585-5.75-14.338m191.09 8.515c.356 4.578.651 34.086.654 65.573L645 672h17.394c29.543 0 45.349-2.663 57.267-9.647 41.763-24.475 40.769-92.496-1.661-113.604-13.203-6.569-16.346-7.072-46.904-7.506l-27.404-.389.648 8.323m180.516 12.139c-42.941 14.637-41.837 78.452 1.56 90.199 25.684 6.952 51.053-6.235 58.704-30.515 12.033-38.187-22.626-72.513-60.264-59.684M665 606.5V653l9.25-.035c36.153-.136 54.67-16.2 54.714-47.465.042-30.331-17.293-45.431-52.214-45.483L665 560v46.5m-147.24-36.001c-20.919 5.284-33.288 21.436-34.46 45.001-1.923 38.642 26.125 61.982 63.115 52.522 23.312-5.962 34.983-22.134 35.017-48.522.031-23.625-10.199-40.246-29.313-47.623-7.288-2.813-25.746-3.553-34.359-1.378m2.264 6.104c-35.579 9.561-41.105 64.684-8.24 82.201 21.622 11.524 51.174 1.997 59.03-19.03 14.304-38.281-13.717-73.133-50.79-63.171M180.25 593.758l-62.25.257v131.176l61.917-.346c34.054-.19 62.183-.611 62.507-.936.325-.324.475-29.799.333-65.5L242.5 593.5l-62.25.258m-55.008 64.992.258 57.75 55.25.258 55.25.259v-48.509c0-27.729-.382-48.508-.891-48.508-.491 0-10.728 10.462-22.75 23.249C178.884 678.854 178.742 679 177.784 679c-1.152 0-30.332-28.576-33.01-32.326l-2.019-2.826 3.319-3.424c1.825-1.883 3.811-3.424 4.413-3.424.602 0 6.92 5.88 14.04 13.066l12.945 13.065 5.021-5.315c2.762-2.924 15.593-16.492 28.514-30.151 12.921-13.659 23.643-25.247 23.826-25.75.199-.546-21.867-.915-54.758-.915h-55.091l.258 57.75m190.008-48.988-36.25.263V715h110l-.008-52.75-.009-52.75h-18.741c-10.308 0-35.054.118-54.992.262m15.5 6.966-44.75.293V708h96.02l-.26-45.75-.26-45.75-3-.032c-1.65-.018-23.137.099-47.75.26" fill-rule="evenodd"/>
</svg>