<svg width="200" height="100" viewBox="0 0 856 420" fill="none" xmlns="http://www.w3.org/2000/svg">
<path fill-rule="evenodd" clip-rule="evenodd" d="M1 64.1143V127.229H136.132V1H1V64.1143ZM290.715 29.8104C275.538 44.1151 260.355 58.4148 245.166 72.7095L229.338 87.5986L215.554 74.5834L201.768 61.5691L198.678 64.2483C196.98 65.721 195.615 67.3942 195.645 67.9667C195.674 68.5391 203.191 76.0473 212.346 84.6513L228.994 100.296L242.832 87.1035C250.443 79.8468 269.489 62.0193 285.157 47.4854C300.825 32.9515 316.494 18.1592 319.976 14.6141L326.308 8.16764L323.372 4.98451L320.435 1.80042L290.715 29.8104ZM9.7533 9.31738C9.31547 9.85557 9.16845 34.8439 9.42574 64.8481L9.89383 119.4H128.564V72.9209C128.564 46.6076 128.149 26.4414 127.608 26.4414C126.851 26.4414 95.3188 56.6638 69.9259 81.7275L65.9606 85.6416L46.4551 68.041L26.9496 50.4395L31.2728 46.5274L35.5948 42.6143L50.4918 56.0718L65.3887 69.5303L89.6789 45.8855C100.045 35.8001 110.4 25.7058 120.745 15.6024C124.885 11.5474 127.061 8.7068 126.339 8.30267C124.396 7.21652 10.6571 8.20579 9.7533 9.31738ZM175.05 79.7705V140.928H293.966V50.5207L290.182 53.8398L286.398 57.159V134.078H182.617V25.4629H282.732L286.398 22.0381L290.065 18.6133H175.05V79.7705ZM366.396 115.452V178.111H389.099V132.528L393.967 128.204C398.194 124.45 399.031 124.068 400.324 125.31C401.144 126.095 407.647 132.744 414.778 140.084C423.137 148.677 431.535 157.239 439.971 165.77L452.199 178.111H479.935L458.03 155.831C422.561 119.755 415.6 112.491 415.322 111.265C415.177 110.627 428.604 97.3349 445.16 81.7275L475.263 53.3506L462.18 53.0737L449.097 52.7967L438.287 62.8588C432.341 68.3933 418.963 81.0328 408.558 90.9481L389.639 108.974L389.099 81.1629L388.558 53.3506L377.477 53.0717L366.396 52.7928V115.452ZM509.096 115.549V178.111H598.823V160.498H531.749L532.043 142.64L532.338 124.782L560.716 124.521L589.094 124.261V105.701H531.748L532.043 88.3325L532.338 70.9639L564.5 70.7045L596.661 70.4453V52.8026L552.878 52.8946L509.096 52.9856V115.549ZM635.579 115.486V178.111H725.307V173.845C725.307 171.498 724.997 167.535 724.619 165.038L723.932 160.498H658.281V124.293H715.577V105.701H658.281V70.4746H723.145V52.8613H635.579V115.486ZM762.062 115.486V178.111H784.765V137.014H797.783C838.071 137.014 856.555 122.113 854.762 91.0782C854.025 78.3164 851.148 71.6938 843.228 64.5252C832.662 54.9612 822.22 52.8613 785.227 52.8613H762.062V115.486ZM785.341 71.2574C785.024 71.5441 784.765 82.3225 784.765 95.2095V118.639L800.17 118.226C821.586 117.651 827.413 114.974 831.813 103.685C837.016 90.3375 830.352 76.3907 817.196 73.096C811.416 71.6498 786.498 70.2104 785.341 71.2574ZM1 208.445V270.092H136.132V192.405L132.348 195.725L128.564 199.044V263.242H9.74682L9.11764 260.062C8.77171 258.312 8.62792 233.764 8.79873 205.51L9.10791 154.138L68.8362 153.885L128.564 153.632V173.299L100.3 200.657C84.7558 215.704 71.6675 228.016 71.2167 228.016C70.7648 228.016 63.0363 221.118 54.0398 212.688L37.6845 197.361L33.9365 200.649C31.8749 202.457 30.1885 204.405 30.1885 204.977C30.1885 205.55 39.4099 214.357 50.6799 224.547L71.1723 243.076L73.5344 241.172C75.4717 239.611 104.575 210.901 131.641 183.851L137.422 178.075L136.638 162.437L135.855 146.799H1V208.445ZM175.313 223.857L175.59 287.216L234.778 287.469L293.966 287.722V217.246L290.182 221.037L286.398 224.828V280.855H182.617V167.348H286.398V176.644C286.398 186.977 286.729 187.403 290.993 182.567C293.769 179.418 293.966 178.574 293.966 169.846V160.498H175.034L175.313 223.857ZM276.669 209.905C253.183 231.685 233.63 249.515 233.217 249.524C232.805 249.534 225.654 243.268 217.327 235.599L202.185 221.655L198.776 224.711C194.333 228.693 193.889 228.086 215.304 247.379L232.995 263.318L250.237 246.917C259.721 237.896 280.494 218.497 296.398 203.807C312.303 189.118 325.301 176.776 325.282 176.382C325.248 175.664 320.299 170.274 319.693 170.294C319.515 170.299 300.155 188.124 276.669 209.905ZM771.055 237.856C743.096 240.946 720.919 257.03 711.536 281.017C707.252 291.969 707.298 312.194 711.633 323.411C719.233 343.075 734.496 357.024 755.755 363.735C766.376 367.088 789.883 368.025 801.491 365.558C834.438 358.557 855.377 333.553 855.214 301.404C855.006 260.244 818.421 232.619 771.055 237.856ZM363.424 238.449C362.43 238.812 362.072 242.68 362.072 253.049V267.156H344.775V273.027H361.94L362.277 312.902C362.583 349.186 362.791 353.1 364.588 356.37C367.205 361.132 372.486 363.357 382.337 363.85C392.038 364.337 393.312 363.944 392.623 360.682C392.113 358.267 391.777 358.158 384.794 358.158C369.869 358.158 369.654 357.473 369.646 309.966L369.64 273.027H379.846C390.624 273.027 391.531 272.705 390.529 269.238C390.061 267.616 389.183 267.114 387.067 267.258C385.51 267.365 380.95 267.385 376.937 267.304L369.64 267.156V252.479C369.64 236.687 369.445 236.25 363.424 238.449ZM570.002 246.781C570.387 251.26 570.706 280.134 570.709 310.945L570.716 366.965H589.52C621.457 366.965 638.544 364.359 651.428 357.525C696.577 333.576 695.502 267.016 649.633 246.362C635.36 239.934 631.962 239.442 598.927 239.017L569.302 238.636L570.002 246.781ZM765.15 258.659C718.728 272.981 719.922 335.425 766.836 346.92C794.602 353.723 822.028 340.819 830.299 317.061C843.307 279.694 805.839 246.105 765.15 258.659ZM592.337 302.872V348.373L602.337 348.339C641.42 348.206 661.438 332.487 661.485 301.894C661.531 272.214 642.791 257.439 605.039 257.388L592.337 257.371V302.872ZM433.162 267.645C410.548 272.815 397.176 288.62 395.909 311.679C393.83 349.49 424.152 372.329 464.14 363.072C489.342 357.238 501.959 341.414 501.995 315.593C502.029 292.475 490.97 276.211 470.306 268.993C462.428 266.24 442.474 265.516 433.162 267.645ZM435.61 273.617C397.147 282.973 391.173 336.912 426.702 354.052C450.077 365.329 482.024 356.006 490.517 335.431C505.98 297.973 475.688 263.869 435.61 273.617ZM68.2957 290.404L1 290.655V419.013L67.9357 418.674C104.75 418.489 135.159 418.077 135.509 417.759C135.86 417.442 136.023 388.6 135.869 353.666L135.591 290.151L68.2957 290.404ZM8.82899 353.999L9.10791 410.509L68.8362 410.761L128.564 411.015V363.548C128.564 336.415 128.151 316.082 127.601 316.082C127.07 316.082 116.004 326.319 103.007 338.832C66.8189 373.672 66.6654 373.814 65.6298 373.814C64.3844 373.814 32.8392 345.852 29.9442 342.183L27.7615 339.418L31.3495 336.067C33.3225 334.225 35.4694 332.717 36.1202 332.717C36.771 332.717 43.6011 338.47 51.2982 345.502L65.2925 358.286L70.7205 353.086C73.7063 350.224 87.5774 336.948 101.546 323.582C115.514 310.217 127.105 298.878 127.303 298.386C127.518 297.851 103.663 297.49 68.1065 297.49H8.55009L8.82899 353.999ZM214.238 306.064L175.05 306.321V409.041H293.966L293.957 357.424L293.947 305.808H273.687C262.544 305.808 235.792 305.923 214.238 306.064ZM230.994 312.88L182.617 313.167V402.191H286.42L286.139 357.424L285.858 312.657L282.615 312.626C280.831 312.608 257.602 312.723 230.994 312.88Z" fill="#060606" stroke="#060606"/>
</svg>
