<svg width="20" height="20" viewBox="0 0 20 20" fill="none" xmlns="http://www.w3.org/2000/svg">
<path fill-rule="evenodd" clip-rule="evenodd" d="M1.66663 3.63637C1.66663 3.51582 1.7257 3.4002 1.83084 3.31496C1.93599 3.22971 2.07859 3.18182 2.22729 3.18182H17.926C18.0747 3.18182 18.2173 3.22971 18.3224 3.31496C18.4276 3.4002 18.4866 3.51582 18.4866 3.63637V17.7273C18.4866 18.33 18.1913 18.9081 17.6655 19.3343C17.1398 19.7606 16.4268 20 15.6833 20H4.46996C3.72647 20 3.01343 19.7606 2.4877 19.3343C1.96198 18.9081 1.66663 18.33 1.66663 17.7273V3.63637ZM2.78796 4.09091V17.7273C2.78796 18.0889 2.96517 18.4358 3.28061 18.6915C3.59604 18.9472 4.02387 19.0909 4.46996 19.0909H15.6833C16.1294 19.0909 16.5572 18.9472 16.8726 18.6915C17.1881 18.4358 17.3653 18.0889 17.3653 17.7273V4.09091H2.78796Z" fill="black"/>
<path fill-rule="evenodd" clip-rule="evenodd" d="M0 3.63637C0 3.51582 0.0585317 3.4002 0.162719 3.31496C0.266905 3.22971 0.408213 3.18182 0.555556 3.18182H19.4444C19.5918 3.18182 19.7331 3.22971 19.8373 3.31496C19.9415 3.4002 20 3.51582 20 3.63637C20 3.75692 19.9415 3.87254 19.8373 3.95778C19.7331 4.04303 19.5918 4.09091 19.4444 4.09091H0.555556C0.408213 4.09091 0.266905 4.04303 0.162719 3.95778C0.0585317 3.87254 0 3.75692 0 3.63637ZM13.8889 7.27273C14.0362 7.27273 14.1775 7.32062 14.2817 7.40587C14.3859 7.49111 14.4444 7.60673 14.4444 7.72728V16.8182C14.4444 16.9387 14.3859 17.0544 14.2817 17.1396C14.1775 17.2248 14.0362 17.2727 13.8889 17.2727C13.7415 17.2727 13.6002 17.2248 13.4961 17.1396C13.3919 17.0544 13.3333 16.9387 13.3333 16.8182V7.72728C13.3333 7.60673 13.3919 7.49111 13.4961 7.40587C13.6002 7.32062 13.7415 7.27273 13.8889 7.27273ZM6.11111 7.27273C5.96377 7.27273 5.82246 7.32062 5.71827 7.40587C5.61409 7.49111 5.55556 7.60673 5.55556 7.72728V16.8182C5.55556 16.9387 5.61409 17.0544 5.71827 17.1396C5.82246 17.2248 5.96377 17.2727 6.11111 17.2727C6.25845 17.2727 6.39976 17.2248 6.50395 17.1396C6.60814 17.0544 6.66667 16.9387 6.66667 16.8182V7.72728C6.66667 7.60673 6.60814 7.49111 6.50395 7.40587C6.39976 7.32062 6.25845 7.27273 6.11111 7.27273ZM10 7.27273C9.85266 7.27273 9.71135 7.32062 9.60716 7.40587C9.50298 7.49111 9.44444 7.60673 9.44444 7.72728V16.8182C9.44444 16.9387 9.50298 17.0544 9.60716 17.1396C9.71135 17.2248 9.85266 17.2727 10 17.2727C10.1473 17.2727 10.2887 17.2248 10.3928 17.1396C10.497 17.0544 10.5556 16.9387 10.5556 16.8182V7.72728C10.5556 7.60673 10.497 7.49111 10.3928 7.40587C10.2887 7.32062 10.1473 7.27273 10 7.27273Z" fill="black"/>
<path fill-rule="evenodd" clip-rule="evenodd" d="M4.44446 3.63636C4.44446 3.75692 4.50299 3.87253 4.60718 3.95778C4.71136 4.04302 4.85267 4.09091 5.00001 4.09091H15.5556C15.7029 4.09091 15.8442 4.04302 15.9484 3.95778C16.0526 3.87253 16.1111 3.75692 16.1111 3.63636V2.27273C16.1111 1.66996 15.8185 1.09189 15.2975 0.665666C14.7766 0.239447 14.0701 0 13.3333 0H7.22224C6.48552 0 5.77898 0.239447 5.25805 0.665666C4.73712 1.09189 4.44446 1.66996 4.44446 2.27273V3.63636ZM5.55557 3.18182V2.27273C5.55557 1.91107 5.73116 1.56422 6.04372 1.30849C6.35628 1.05276 6.78021 0.909091 7.22224 0.909091H13.3333C13.7754 0.909091 14.1993 1.05276 14.5119 1.30849C14.8244 1.56422 15 1.91107 15 2.27273V3.18182H5.55557Z" fill="black"/>
</svg>
