<svg width="20" height="20" viewBox="0 0 20 20" fill="none" xmlns="http://www.w3.org/2000/svg">
<g clip-path="url(#clip0_3_2)">
<path d="M7.85833 17.5H2.08333C1.531 17.4993 1.00148 17.2796 0.610925 16.8891C0.220368 16.4985 0.000661607 15.969 0 15.4167L0 2.08333C0 0.934167 0.935 0 2.08333 0H12.0833C13.2317 0 14.1667 0.934167 14.1667 2.08333V9.85C14.1667 9.96051 14.1228 10.0665 14.0446 10.1446C13.9665 10.2228 13.8605 10.2667 13.75 10.2667C13.6395 10.2667 13.5335 10.2228 13.4554 10.1446C13.3772 10.0665 13.3333 9.96051 13.3333 9.85V2.08333C13.3333 1.39417 12.7725 0.833333 12.0833 0.833333H2.08333C1.39417 0.833333 0.833333 1.39417 0.833333 2.08333V15.4167C0.833333 16.1058 1.39417 16.6667 2.08333 16.6667H7.85833C7.96884 16.6667 8.07482 16.7106 8.15296 16.7887C8.2311 16.8668 8.275 16.9728 8.275 17.0833C8.275 17.1938 8.2311 17.2998 8.15296 17.378C8.07482 17.4561 7.96884 17.5 7.85833 17.5Z" fill="black"/>
<path d="M11.25 7.49998H2.91667C2.80616 7.49998 2.70018 7.45608 2.62204 7.37794C2.5439 7.2998 2.5 7.19382 2.5 7.08331C2.5 6.97281 2.5439 6.86683 2.62204 6.78869C2.70018 6.71054 2.80616 6.66665 2.91667 6.66665H11.25C11.3605 6.66665 11.4665 6.71054 11.5446 6.78869C11.6228 6.86683 11.6667 6.97281 11.6667 7.08331C11.6667 7.19382 11.6228 7.2998 11.5446 7.37794C11.4665 7.45608 11.3605 7.49998 11.25 7.49998ZM7.91667 10.8333H2.91667C2.80616 10.8333 2.70018 10.7894 2.62204 10.7113C2.5439 10.6331 2.5 10.5272 2.5 10.4166C2.5 10.3061 2.5439 10.2002 2.62204 10.122C2.70018 10.0439 2.80616 9.99998 2.91667 9.99998H7.91667C8.02717 9.99998 8.13315 10.0439 8.2113 10.122C8.28944 10.2002 8.33333 10.3061 8.33333 10.4166C8.33333 10.5272 8.28944 10.6331 8.2113 10.7113C8.13315 10.7894 8.02717 10.8333 7.91667 10.8333ZM7.08333 4.16665H2.91667C2.80616 4.16665 2.70018 4.12275 2.62204 4.04461C2.5439 3.96647 2.5 3.86049 2.5 3.74998C2.5 3.63947 2.5439 3.53349 2.62204 3.45535C2.70018 3.37721 2.80616 3.33331 2.91667 3.33331H7.08333C7.19384 3.33331 7.29982 3.37721 7.37796 3.45535C7.4561 3.53349 7.5 3.63947 7.5 3.74998C7.5 3.86049 7.4561 3.96647 7.37796 4.04461C7.29982 4.12275 7.19384 4.16665 7.08333 4.16665ZM9.91167 20C9.85016 19.9997 9.78946 19.9859 9.73389 19.9596C9.67832 19.9332 9.62925 19.8949 9.59018 19.8474C9.55111 19.7999 9.52299 19.7443 9.50784 19.6847C9.49268 19.6251 9.49086 19.5629 9.5025 19.5025L10.0917 16.5566C10.1076 16.4758 10.1474 16.4015 10.2058 16.3433L16.6875 9.86165C17.1583 9.38998 17.9833 9.38998 18.455 9.86165L19.6333 11.04C19.8675 11.2745 19.999 11.5923 19.999 11.9237C19.999 12.2551 19.8675 12.573 19.6333 12.8075L13.1517 19.2891C13.0935 19.3471 13.0196 19.3868 12.9392 19.4033L9.99333 19.9925C9.96639 19.9974 9.93906 19.9999 9.91167 20ZM10.8842 16.8425L10.4425 19.0516L12.6517 18.61L19.0442 12.2175C19.1223 12.1393 19.1662 12.0334 19.1662 11.9229C19.1662 11.8124 19.1223 11.7065 19.0442 11.6283L17.8658 10.45C17.7865 10.3742 17.681 10.332 17.5713 10.332C17.4615 10.332 17.356 10.3742 17.2767 10.45L10.8842 16.8425Z" fill="black"/>
</g>
<defs>
<clipPath id="clip0_3_2">
<rect width="20" height="20" fill="white"/>
</clipPath>
</defs>
</svg>
