<svg width="20" height="20" viewBox="0 0 20 20" fill="none" xmlns="http://www.w3.org/2000/svg">
<path d="M8.95837 8.33333H3.75004C3.63953 8.33333 3.53355 8.28944 3.45541 8.21129C3.37727 8.13315 3.33337 8.02717 3.33337 7.91667C3.33337 7.80616 3.37727 7.70018 3.45541 7.62204C3.53355 7.5439 3.63953 7.5 3.75004 7.5H8.95837C9.06888 7.5 9.17486 7.5439 9.253 7.62204C9.33114 7.70018 9.37504 7.80616 9.37504 7.91667C9.37504 8.02717 9.33114 8.13315 9.253 8.21129C9.17486 8.28944 9.06888 8.33333 8.95837 8.33333ZM16.25 11.6667H3.75004C3.63953 11.6667 3.53355 11.6228 3.45541 11.5446C3.37727 11.4665 3.33337 11.3605 3.33337 11.25C3.33337 11.1395 3.37727 11.0335 3.45541 10.9554C3.53355 10.8772 3.63953 10.8333 3.75004 10.8333H16.25C16.3605 10.8333 16.4665 10.8772 16.5447 10.9554C16.6228 11.0335 16.6667 11.1395 16.6667 11.25C16.6667 11.3605 16.6228 11.4665 16.5447 11.5446C16.4665 11.6228 16.3605 11.6667 16.25 11.6667Z" fill="black"/>
<path d="M18.75 17.5H1.25C0.560833 17.5 0 16.9391 0 16.25V4.58331C0 3.89415 0.560833 3.33331 1.25 3.33331H8.8C8.91051 3.33331 9.01649 3.37721 9.09463 3.45535C9.17277 3.53349 9.21667 3.63947 9.21667 3.74998C9.21667 3.86049 9.17277 3.96647 9.09463 4.04461C9.01649 4.12275 8.91051 4.16665 8.8 4.16665H1.25C1.13949 4.16665 1.03351 4.21055 0.955372 4.28869C0.877232 4.36683 0.833333 4.47281 0.833333 4.58331V16.25C0.833333 16.3605 0.877232 16.4665 0.955372 16.5446C1.03351 16.6227 1.13949 16.6666 1.25 16.6666H18.75C18.8605 16.6666 18.9665 16.6227 19.0446 16.5446C19.1228 16.4665 19.1667 16.3605 19.1667 16.25V9.77498C19.1667 9.66447 19.2106 9.55849 19.2887 9.48035C19.3668 9.40221 19.4728 9.35831 19.5833 9.35831C19.6938 9.35831 19.7998 9.40221 19.878 9.48035C19.9561 9.55849 20 9.66447 20 9.77498V16.25C20 16.9391 19.4392 17.5 18.75 17.5Z" fill="black"/>
<path d="M12.9167 20H7.08333C7.00082 20.0001 6.92011 19.9758 6.85146 19.93C6.7828 19.8842 6.72928 19.8191 6.69768 19.7429C6.66608 19.6667 6.65783 19.5828 6.67397 19.5018C6.69011 19.4209 6.72991 19.3466 6.78833 19.2883C7.885 18.1917 7.89917 17.13 7.89917 17.085C7.89917 16.8567 8.085 16.6692 8.31333 16.6675H8.31583C8.54333 16.6675 8.72917 16.8492 8.7325 17.0767C8.7325 17.125 8.735 18.0725 7.975 19.1658H12.0225C11.26 18.0758 11.2492 17.1308 11.2492 17.0825C11.2488 16.972 11.2924 16.8659 11.3703 16.7875C11.4482 16.7091 11.5541 16.6649 11.6646 16.6646C11.7751 16.6643 11.8812 16.7078 11.9596 16.7857C12.038 16.8636 12.0822 16.9695 12.0825 17.08C12.0833 17.1325 12.1158 18.1933 13.2108 19.2875C13.2692 19.3458 13.3089 19.42 13.3249 19.5009C13.3409 19.5818 13.3325 19.6656 13.3008 19.7417C13.2698 19.8181 13.2167 19.8835 13.1482 19.9295C13.0798 19.9755 12.9991 20.0001 12.9167 20ZM19.5833 15H0.416667C0.30616 15 0.200179 14.9561 0.122039 14.878C0.0438987 14.7998 0 14.6938 0 14.5833C0 14.4728 0.0438987 14.3668 0.122039 14.2887C0.200179 14.2106 0.30616 14.1667 0.416667 14.1667H19.5833C19.6938 14.1667 19.7998 14.2106 19.878 14.2887C19.9561 14.3668 20 14.4728 20 14.5833C20 14.6938 19.9561 14.7998 19.878 14.878C19.7998 14.9561 19.6938 15 19.5833 15ZM15.4167 9.16667C12.8892 9.16667 10.8333 7.11 10.8333 4.58333C10.8333 2.05667 12.8892 0 15.4167 0C17.9442 0 20 2.05667 20 4.58333C20 7.11 17.9442 9.16667 15.4167 9.16667ZM15.4167 0.833333C13.3492 0.833333 11.6667 2.51583 11.6667 4.58333C11.6667 6.65083 13.3492 8.33333 15.4167 8.33333C17.4842 8.33333 19.1667 6.65083 19.1667 4.58333C19.1667 2.51583 17.4842 0.833333 15.4167 0.833333Z" fill="black"/>
<path d="M14.9625 6.25C14.9067 6.24999 14.8514 6.23878 14.8 6.21702C14.7486 6.19526 14.7021 6.1634 14.6633 6.12333L13.4508 4.87333C13.4103 4.83457 13.3781 4.78803 13.356 4.73652C13.3339 4.685 13.3224 4.62955 13.3223 4.5735C13.3221 4.51744 13.3333 4.46194 13.3551 4.41029C13.3769 4.35865 13.4089 4.31194 13.4491 4.27296C13.4894 4.23397 13.5371 4.20351 13.5895 4.18341C13.6418 4.1633 13.6976 4.15395 13.7536 4.15593C13.8097 4.15791 13.8647 4.17118 13.9155 4.19493C13.9663 4.21868 14.0117 4.25243 14.0491 4.29416L14.9416 5.21416L16.7658 3.065C16.8012 3.02325 16.8444 2.98887 16.893 2.96382C16.9416 2.93878 16.9947 2.92356 17.0493 2.91903C17.1038 2.9145 17.1586 2.92076 17.2107 2.93744C17.2628 2.95412 17.3111 2.9809 17.3529 3.01625C17.3946 3.05159 17.429 3.09482 17.4541 3.14345C17.4791 3.19208 17.4943 3.24517 17.4989 3.29969C17.5034 3.35421 17.4971 3.40908 17.4804 3.46118C17.4638 3.51328 17.437 3.56158 17.4016 3.60333L15.2808 6.10333C15.2431 6.14764 15.1966 6.18364 15.1442 6.20903C15.0919 6.23442 15.0348 6.24866 14.9766 6.25083L14.9625 6.25Z" fill="black"/>
</svg>
