<svg xmlns="http://www.w3.org/2000/svg" width="128" height="128" viewBox="0 0 28 28"><path fill="#deff8f" d="M10.333 26.423c-6.411-.359-9.561-8.762-9.315-13.151s9.073-4.692 15.484-4.333 9.131.103 9.006 9.746c-.056 4.393-8.764 8.097-15.175 7.738z"/><path d="M23 8c-1.654 0-3-1.346-3-3s1.346-3 3-3 3 1.346 3 3-1.346 3-3 3zm0-5c-1.103 0-2 .897-2 2s.897 2 2 2 2-.897 2-2-.897-2-2-2zM23 17c-1.654 0-3-1.346-3-3s1.346-3 3-3 3 1.346 3 3-1.346 3-3 3zm0-5c-1.103 0-2 .897-2 2s.897 2 2 2 2-.897 2-2-.897-2-2-2zM23 26c-1.654 0-3-1.346-3-3s1.346-3 3-3 3 1.346 3 3-1.346 3-3 3zm0-5c-1.103 0-2 .897-2 2s.897 2 2 2 2-.897 2-2-.897-2-2-2zM17.5 4h-15a.5.5 0 0 1 0-1h15a.5.5 0 0 1 0 1zM17.5 7h-15a.5.5 0 0 1 0-1h15a.5.5 0 0 1 0 1zM17.5 13h-15a.5.5 0 0 1 0-1h15a.5.5 0 0 1 0 1zM17.5 16h-15a.5.5 0 0 1 0-1h15a.5.5 0 0 1 0 1zM17.5 22h-15a.5.5 0 0 1 0-1h15a.5.5 0 0 1 0 1zM17.5 25h-15a.5.5 0 0 1 0-1h15a.5.5 0 0 1 0 1z"/></svg>