<svg width="30" height="30" viewBox="0 0 30 30" fill="none" xmlns="http://www.w3.org/2000/svg">
<g clip-path="url(#clip0_3_2)">
<path d="M11.7875 26.25H3.125C2.2965 26.249 1.50222 25.9194 0.916388 25.3336C0.330551 24.7478 0.000992411 23.9535 0 23.125L0 3.125C0 1.40125 1.4025 0 3.125 0H18.125C19.8475 0 21.25 1.40125 21.25 3.125V14.775C21.25 14.9408 21.1842 15.0997 21.0669 15.2169C20.9497 15.3342 20.7908 15.4 20.625 15.4C20.4592 15.4 20.3003 15.3342 20.1831 15.2169C20.0658 15.0997 20 14.9408 20 14.775V3.125C20 2.09125 19.1588 1.25 18.125 1.25H3.125C2.09125 1.25 1.25 2.09125 1.25 3.125V23.125C1.25 24.1588 2.09125 25 3.125 25H11.7875C11.9533 25 12.1122 25.0658 12.2294 25.1831C12.3467 25.3003 12.4125 25.4592 12.4125 25.625C12.4125 25.7908 12.3467 25.9497 12.2294 26.0669C12.1122 26.1842 11.9533 26.25 11.7875 26.25Z" fill="black"/>
<path d="M16.875 11.25H4.375C4.20924 11.25 4.05027 11.1842 3.93306 11.0669C3.81585 10.9497 3.75 10.7908 3.75 10.625C3.75 10.4592 3.81585 10.3003 3.93306 10.1831C4.05027 10.0658 4.20924 10 4.375 10H16.875C17.0408 10 17.1997 10.0658 17.3169 10.1831C17.4342 10.3003 17.5 10.4592 17.5 10.625C17.5 10.7908 17.4342 10.9497 17.3169 11.0669C17.1997 11.1842 17.0408 11.25 16.875 11.25ZM11.875 16.25H4.375C4.20924 16.25 4.05027 16.1842 3.93306 16.0669C3.81585 15.9497 3.75 15.7908 3.75 15.625C3.75 15.4592 3.81585 15.3003 3.93306 15.1831C4.05027 15.0658 4.20924 15 4.375 15H11.875C12.0408 15 12.1997 15.0658 12.3169 15.1831C12.4342 15.3003 12.5 15.4592 12.5 15.625C12.5 15.7908 12.4342 15.9497 12.3169 16.0669C12.1997 16.1842 12.0408 16.25 11.875 16.25ZM10.625 6.25H4.375C4.20924 6.25 4.05027 6.18415 3.93306 6.06694C3.81585 5.94973 3.75 5.79076 3.75 5.625C3.75 5.45924 3.81585 5.30027 3.93306 5.18306C4.05027 5.06585 4.20924 5 4.375 5H10.625C10.7908 5 10.9497 5.06585 11.0669 5.18306C11.1842 5.30027 11.25 5.45924 11.25 5.625C11.25 5.79076 11.1842 5.94973 11.0669 6.06694C10.9497 6.18415 10.7908 6.25 10.625 6.25ZM14.8675 30C14.7752 29.9996 14.6842 29.979 14.6008 29.9394C14.5175 29.8998 14.4439 29.8424 14.3853 29.7711C14.3267 29.6998 14.2845 29.6165 14.2618 29.5271C14.239 29.4377 14.2363 29.3444 14.2538 29.2538L15.1375 24.835C15.1615 24.7137 15.2211 24.6022 15.3088 24.515L25.0313 14.7925C25.7375 14.085 26.975 14.085 27.6825 14.7925L29.45 16.56C29.8012 16.9118 29.9985 17.3885 29.9985 17.8856C29.9985 18.3827 29.8012 18.8595 29.45 19.2113L19.7275 28.9338C19.6402 29.0207 19.5294 29.0802 19.4088 29.105L14.99 29.9888C14.9496 29.9962 14.9086 29.9999 14.8675 30ZM16.3263 25.2638L15.6638 28.5775L18.9775 27.915L28.5663 18.3263C28.6834 18.209 28.7492 18.0501 28.7492 17.8844C28.7492 17.7186 28.6834 17.5597 28.5663 17.4425L26.7988 15.675C26.6797 15.5614 26.5215 15.498 26.3569 15.498C26.1923 15.498 26.0341 15.5614 25.915 15.675L16.3263 25.2638Z" fill="black"/>
</g>
<defs>
<clipPath id="clip0_3_2">
<rect width="30" height="30" fill="white"/>
</clipPath>
</defs>
</svg>
