<svg xmlns="http://www.w3.org/2000/svg" width="128" height="128" viewBox="0 0 24 24"><g fill-rule="evenodd"><path d="M4.5 5a.5.5 0 0 1 .5-.5h14a.5.5 0 0 1 .5.5v15.5A2.5 2.5 0 0 1 17 23H7a2.5 2.5 0 0 1-2.5-2.5V5Zm1 .5v15A1.5 1.5 0 0 0 7 22h10a1.5 1.5 0 0 0 1.5-1.5v-15h-13Z"/><path d="M3 5a.5.5 0 0 1 .5-.5h17a.5.5 0 0 1 0 1h-17A.5.5 0 0 1 3 5ZM15.5 9a.5.5 0 0 1 .5.5v10a.5.5 0 0 1-1 0v-10a.5.5 0 0 1 .5-.5ZM8.5 9a.5.5 0 0 0-.5.5v10a.5.5 0 0 0 1 0v-10a.5.5 0 0 0-.5-.5ZM12 9a.5.5 0 0 0-.5.5v10a.5.5 0 0 0 1 0v-10A.5.5 0 0 0 12 9Z"/><path d="M7 5a.5.5 0 0 0 .5.5H17a.5.5 0 0 0 .5-.5V3.5A2.5 2.5 0 0 0 15 1H9.5A2.5 2.5 0 0 0 7 3.5V5Zm1-.5v-1A1.5 1.5 0 0 1 9.5 2H15a1.5 1.5 0 0 1 1.5 1.5v1H8Z"/></g></svg>