<svg width="30" height="30" viewBox="0 0 30 30" fill="none" xmlns="http://www.w3.org/2000/svg">
<path fill-rule="evenodd" clip-rule="evenodd" d="M2.5 5.45452C2.5 5.27369 2.5878 5.10027 2.74408 4.97241C2.90036 4.84454 3.11232 4.77271 3.33333 4.77271H26.6667C26.8877 4.77271 27.0996 4.84454 27.2559 4.97241C27.4122 5.10027 27.5 5.27369 27.5 5.45452V26.5909C27.5 27.495 27.061 28.3621 26.2796 29.0015C25.4982 29.6408 24.4384 30 23.3333 30H6.66667C5.5616 30 4.50179 29.6408 3.72039 29.0015C2.93899 28.3621 2.5 27.495 2.5 26.5909V5.45452ZM4.16667 6.13634V26.5909C4.16667 27.1334 4.43006 27.6536 4.8989 28.0372C5.36774 28.4208 6.00363 28.6363 6.66667 28.6363H23.3333C23.9964 28.6363 24.6323 28.4208 25.1011 28.0372C25.5699 27.6536 25.8333 27.1334 25.8333 26.5909V6.13634H4.16667Z" fill="black"/>
<path fill-rule="evenodd" clip-rule="evenodd" d="M0 5.45452C0 5.27369 0.0877975 5.10027 0.244078 4.97241C0.400358 4.84454 0.61232 4.77271 0.833333 4.77271H29.1667C29.3877 4.77271 29.5996 4.84454 29.7559 4.97241C29.9122 5.10027 30 5.27369 30 5.45452C30 5.63535 29.9122 5.80878 29.7559 5.93664C29.5996 6.06451 29.3877 6.13634 29.1667 6.13634H0.833333C0.61232 6.13634 0.400358 6.06451 0.244078 5.93664C0.0877975 5.80878 0 5.63535 0 5.45452ZM20.8333 10.9091C21.0543 10.9091 21.2663 10.9809 21.4226 11.1088C21.5789 11.2366 21.6667 11.4101 21.6667 11.5909V25.2273C21.6667 25.4081 21.5789 25.5815 21.4226 25.7094C21.2663 25.8372 21.0543 25.9091 20.8333 25.9091C20.6123 25.9091 20.4004 25.8372 20.2441 25.7094C20.0878 25.5815 20 25.4081 20 25.2273V11.5909C20 11.4101 20.0878 11.2366 20.2441 11.1088C20.4004 10.9809 20.6123 10.9091 20.8333 10.9091ZM9.16667 10.9091C8.94565 10.9091 8.73369 10.9809 8.57741 11.1088C8.42113 11.2366 8.33333 11.4101 8.33333 11.5909V25.2273C8.33333 25.4081 8.42113 25.5815 8.57741 25.7094C8.73369 25.8372 8.94565 25.9091 9.16667 25.9091C9.38768 25.9091 9.59964 25.8372 9.75592 25.7094C9.9122 25.5815 10 25.4081 10 25.2273V11.5909C10 11.4101 9.9122 11.2366 9.75592 11.1088C9.59964 10.9809 9.38768 10.9091 9.16667 10.9091ZM15 10.9091C14.779 10.9091 14.567 10.9809 14.4107 11.1088C14.2545 11.2366 14.1667 11.4101 14.1667 11.5909V25.2273C14.1667 25.4081 14.2545 25.5815 14.4107 25.7094C14.567 25.8372 14.779 25.9091 15 25.9091C15.221 25.9091 15.433 25.8372 15.5893 25.7094C15.7455 25.5815 15.8333 25.4081 15.8333 25.2273V11.5909C15.8333 11.4101 15.7455 11.2366 15.5893 11.1088C15.433 10.9809 15.221 10.9091 15 10.9091Z" fill="black"/>
<path fill-rule="evenodd" clip-rule="evenodd" d="M6.66663 5.45455C6.66663 5.63537 6.75442 5.8088 6.9107 5.93666C7.06698 6.06453 7.27895 6.13636 7.49996 6.13636H23.3333C23.5543 6.13636 23.7663 6.06453 23.9225 5.93666C24.0788 5.8088 24.1666 5.63537 24.1666 5.45455V3.40909C24.1666 2.50494 23.7276 1.63783 22.9462 0.9985C22.1648 0.359171 21.105 0 20 0H10.8333C9.72822 0 8.66842 0.359171 7.88701 0.9985C7.10561 1.63783 6.66663 2.50494 6.66663 3.40909V5.45455ZM8.33329 4.77273V3.40909C8.33329 2.8666 8.59668 2.34633 9.06553 1.96274C9.53437 1.57914 10.1703 1.36364 10.8333 1.36364H20C20.663 1.36364 21.2989 1.57914 21.7677 1.96274C22.2366 2.34633 22.5 2.8666 22.5 3.40909V4.77273H8.33329Z" fill="black"/>
</svg>
